HIERARCHY
ROOT Hips
{
 OFFSET 0.000000 0.000000 0.000000
 CHANNELS 6 Xposition Yposition Zposition Yrotation Xrotation Zrotation
 JOINT Chest
 {
  OFFSET 0.000000 9.585900 0.002600
  CHANNELS 3 Yrotation Xrotation Zrotation
  JOINT Chest2
  {
   OFFSET 0.000000 9.601200 -0.005300
   CHANNELS 3 Yrotation Xrotation Zrotation
   JOINT Chest3
   {
    OFFSET 0.000000 9.561800 0.000000
    CHANNELS 3 Yrotation Xrotation Zrotation
    JOINT Chest4
    {
     OFFSET 0.000000 9.552100 0.000000
     CHANNELS 3 Yrotation Xrotation Zrotation
     JOINT Neck
     {
      OFFSET 0.000000 14.453000 0.000000
      CHANNELS 3 Yrotation Xrotation Zrotation
      JOINT Head
      {
       OFFSET 0.000000 8.936500 -0.011300
       CHANNELS 3 Yrotation Xrotation Zrotation
       End Site
       {
        OFFSET 0.000000 17.073600 -0.006000
       }
      }
     }
     JOINT RightCollar
     {
      OFFSET -2.921100 9.558500 0.000000
      CHANNELS 3 Yrotation Xrotation Zrotation
      JOINT RightShoulder
      {
       OFFSET -13.519700 0.000000 0.000000
       CHANNELS 3 Yrotation Xrotation Zrotation
       JOINT RightElbow
       {
        OFFSET 0.000000 -29.696600 0.000000
        CHANNELS 3 Yrotation Xrotation Zrotation
        JOINT RightWrist
        {
         OFFSET 0.000000 -24.004700 0.000000
         CHANNELS 3 Yrotation Xrotation Zrotation
         End Site
         {
          OFFSET 0.000000 -17.728500 0.000000
         }
        }
       }
      }
     }
     JOINT LeftCollar
     {
      OFFSET 2.921100 9.558500 0.000000
      CHANNELS 3 Yrotation Xrotation Zrotation
      JOINT LeftShoulder
      {
       OFFSET 13.519700 0.000000 0.000000
       CHANNELS 3 Yrotation Xrotation Zrotation
       JOINT LeftElbow
       {
        OFFSET 0.000000 -29.696600 0.000000
        CHANNELS 3 Yrotation Xrotation Zrotation
        JOINT LeftWrist
        {
         OFFSET 0.000000 -24.004700 0.000000
         CHANNELS 3 Yrotation Xrotation Zrotation
         End Site
         {
          OFFSET 0.000000 -17.728500 0.000000
         }
        }
       }
      }
     }
    }
   }
  }
 }
 JOINT RightHip
 {
  OFFSET -7.771700 -0.012900 -0.001300
  CHANNELS 3 Yrotation Xrotation Zrotation
  JOINT RightKnee
  {
   OFFSET 0.000000 -40.869800 0.001200
   CHANNELS 3 Yrotation Xrotation Zrotation
   JOINT RightAnkle
   {
    OFFSET 0.000000 -39.717900 0.002100
    CHANNELS 3 Yrotation Xrotation Zrotation
    JOINT RightToe
    {
     OFFSET 0.000000 -4.965400 11.033500
     CHANNELS 3 Yrotation Xrotation Zrotation
     End Site
     {
      OFFSET 0.000000 -1.423100 5.872300
     }
    }
   }
  }
 }
 JOINT LeftHip
 {
  OFFSET 7.771700 -0.012900 -0.001300
  CHANNELS 3 Yrotation Xrotation Zrotation
  JOINT LeftKnee
  {
   OFFSET 0.000000 -40.869800 0.001200
   CHANNELS 3 Yrotation Xrotation Zrotation
   JOINT LeftAnkle
   {
    OFFSET 0.000000 -39.717900 0.002100
    CHANNELS 3 Yrotation Xrotation Zrotation
    JOINT LeftToe
    {
     OFFSET 0.000000 -4.965400 11.033500
     CHANNELS 3 Yrotation Xrotation Zrotation
     End Site
     {
      OFFSET 0.000000 -1.423100 5.872300
     }
    }
   }
  }
 }
}
MOTION
Frames: 12
Frame Time: 0.008333
0.000000 85.388000 0.000000 0.000000 -5.767877 0.000000 0.000000 11.653817 0.000000 0.000000 -5.885947 0.000000 0.000000 -0.000000 0.000000 0.000000 -0.000000 0.000000 0.000000 12.528835 0.000000 0.000000 0.711642 0.000000 0.000000 -0.000000 0.000000 0.000000 0.000000 -90.000000 0.000000 -2.309062 0.000000 0.000000 2.309062 0.000000 0.000000 -0.000000 0.000000 0.000000 -0.000000 90.000000 0.000000 -2.309062 0.000000 0.000000 2.309062 0.000000 0.000000 8.520406 0.000000 0.000000 1.905762 0.000000 -0.000000 -4.658285 0.000000 0.000000 -0.000000 0.000000 0.000000 8.520406 0.000000 0.000000 1.905762 0.000000 -0.000000 -4.658285 0.000000 0.000000 -0.000000 0.000000
-29.634721 57.913361 90.312570 -163.630928 -47.000639 -1.764809 -8.779594 27.729556 -1.066288 -1.526087 5.245297 -0.027856 -2.359733 8.217564 -0.085018 -6.901393 22.457601 -1.196994 2.173780 8.898961 -1.439558 4.943477 -19.166121 -3.856415 7.840261 -2.193032 -5.736949 42.295713 -50.104018 -29.589780 35.050358 -7.313153 5.245391 11.935817 -2.075287 -50.338373 -15.435938 -10.385720 -1.748301 -30.365436 -51.817444 7.639936 -51.430076 3.892127 9.557365 -22.907338 -0.237269 32.710466 1.084699 -22.966804 -14.566431 -8.920188 79.984282 -4.292534 -3.601310 -7.485652 1.980518 -0.042360 0.168815 -0.051792 -13.276650 -29.526048 -19.069457 56.584039 75.468426 52.155497 -14.337360 -8.295954 0.510282 -0.034455 -0.826033 -0.024419
-29.644987 57.922332 90.307185 -163.771253 -47.066124 -1.633207 -8.746530 27.788924 -1.155192 -1.504657 5.244799 -0.015278 -2.377081 8.219154 -0.093657 -6.889898 22.458553 -1.198582 2.168193 8.906121 -1.441535 4.951107 -19.152785 -3.859307 7.819020 -2.198004 -5.729159 42.297409 -50.102154 -29.586748 35.059517 -7.331780 5.249496 11.891570 -2.081359 -50.374267 -15.448817 -10.378183 -1.741656 -30.337245 -51.809632 7.628756 -51.371084 3.820028 9.599519 -22.916366 -0.250384 32.749890 1.171551 -22.906169 -14.648606 -8.903077 79.986688 -4.237426 -3.547274 -7.494818 1.935978 -0.037288 0.167520 -0.047431 -13.131858 -29.460034 -19.156580 56.530003 75.452668 52.214767 -15.426476 -8.241695 0.707277 -0.338260 -0.874806 -0.150859
-29.636688 57.923052 90.305396 -163.824613 -47.056566 -1.666761 -8.717800 27.790536 -1.118850 -1.483291 5.244976 -0.004806 -2.397728 8.221173 -0.107673 -6.848728 22.458869 -1.181938 2.141937 8.913830 -1.444858 4.973635 -19.150308 -3.861979 7.780704 -2.200111 -5.723693 42.299941 -50.099550 -29.587180 35.064472 -7.349296 5.252274 11.850571 -2.083278 -50.401195 -15.480528 -10.373007 -1.738725 -30.308597 -51.802337 7.622910 -51.313843 3.741528 9.629020 -22.925291 -0.260358 32.784762 1.153987 -22.916657 -14.585893 -8.839695 79.968551 -4.154947 -3.524989 -7.488297 1.906803 -0.037981 0.170127 -0.052402 -13.130899 -29.451435 -19.092093 56.512856 75.453289 52.267918 -16.151796 -8.243006 0.742483 -0.305876 -0.874862 -0.139231
-29.629720 57.924019 90.304081 -163.841953 -47.045620 -1.717693 -8.709456 27.789646 -1.082016 -1.533147 5.246434 -0.034662 -2.346235 8.221138 -0.087631 -6.844732 22.459882 -1.185029 2.142348 8.920845 -1.442663 4.998772 -19.146573 -3.867315 7.772425 -2.201275 -5.718272 42.298193 -50.098400 -29.585127 35.055642 -7.353833 5.245460 11.863742 -2.109541 -50.396014 -15.483962 -10.369144 -1.734429 -30.280880 -51.798659 7.630399 -51.264166 3.655905 9.641848 -22.932491 -0.269035 32.814754 1.120405 -22.922330 -14.535898 -8.799076 79.948904 -4.090528 -3.503520 -7.486203 1.885506 -0.037168 0.167533 -0.055426 -13.129199 -29.438260 -19.091362 56.579015 75.413402 52.417939 -16.563790 -8.256688 0.729182 -0.235290 -0.861757 -0.114232
-29.624024 57.924680 90.303790 -163.859650 -47.030023 -1.757600 -8.682517 27.782086 -1.033082 -1.543252 5.246838 -0.039876 -2.372582 8.220924 -0.100667 -6.840319 22.460365 -1.185515 2.151186 8.927672 -1.446314 5.003578 -19.119751 -3.881524 7.774645 -2.201792 -5.722303 42.294642 -50.096854 -29.581040 35.034050 -7.331047 5.223783 11.890865 -2.166868 -50.379821 -15.455510 -10.368392 -1.737362 -30.280898 -51.790993 7.615999 -51.219319 3.612616 9.670669 -22.950158 -0.256286 32.820848 1.102308 -22.931712 -14.501197 -8.823615 79.930687 -4.082645 -3.478490 -7.484429 1.865249 -0.041773 0.155229 -0.045402 -13.118876 -29.429905 -19.102905 56.652004 75.367719 52.561543 -16.801760 -8.262693 0.711236 -0.167091 -0.851145 -0.092691
-29.623812 57.927978 90.302738 -163.911948 -47.035835 -1.739621 -8.720643 27.789442 -1.088409 -1.486106 5.247657 -0.012021 -2.445017 8.217902 -0.132216 -6.839051 22.460333 -1.190963 2.207018 8.936481 -1.452798 5.032239 -19.114576 -3.889942 7.847254 -2.198479 -5.728565 42.271916 -50.092681 -29.581307 35.033722 -7.332870 5.220210 11.884149 -2.180185 -50.392195 -15.380091 -10.365275 -1.744167 -30.276994 -51.788391 7.599599 -51.200055 3.616085 9.692789 -22.940691 -0.277876 32.842243 1.106030 -22.925624 -14.498248 -8.721985 79.920006 -3.972071 -3.468672 -7.489407 1.853464 -0.045488 0.155913 -0.048191 -13.024008 -29.384327 -19.228115 56.740550 75.267682 52.785197 -16.851817 -8.282386 0.668702 -0.187813 -0.831848 -0.094569
-29.612995 57.927541 90.303103 -163.955689 -47.008186 -1.784119 -8.714122 27.769347 -1.059225 -1.510601 5.246592 -0.025674 -2.403846 8.220524 -0.116718 -6.836439 22.461037 -1.192641 2.215651 8.944489 -1.456445 5.051957 -19.099144 -3.900682 7.873756 -2.196659 -5.731902 42.250297 -50.088099 -29.583992 35.031337 -7.332870 5.214886 11.870271 -2.186722 -50.407247 -15.370063 -10.366796 -1.750711 -30.259648 -51.774438 7.587634 -51.145119 3.513117 9.715944 -22.954681 -0.299986 32.883718 1.058735 -22.957236 -14.433500 -8.566166 79.899845 -3.803219 -3.450508 -7.486814 1.815400 -0.052459 0.159060 -0.051493 -13.013213 -29.380794 -19.197638 56.784458 75.223377 52.926984 -16.980014 -8.297654 0.590970 -0.074004 -0.827869 -0.061084
-29.604657 57.928177 90.303404 -163.962017 -46.988682 -1.839723 -8.716457 27.756652 -1.026652 -1.520492 5.246176 -0.031682 -2.402793 8.221013 -0.117411 -6.807693 22.464015 -1.185013 2.200250 8.950689 -1.459092 5.046765 -19.062911 -3.915890 7.800989 -2.207540 -5.723790 42.306644 -50.074984 -29.590373 35.030937 -7.333249 5.206063 11.863936 -2.197901 -50.410210 -15.423791 -10.366714 -1.752712 -30.225830 -51.762860 7.597078 -51.113189 3.484035 9.736807 -22.942321 -0.334147 32.918851 1.007224 -22.971243 -14.415193 -8.615844 79.878484 -3.793199 -3.390444 -7.486440 1.751100 -0.034560 0.164299 -0.055900 -13.035803 -29.381931 -19.149804 56.824390 75.200396 53.017131 -17.074072 -8.294040 0.551789 -0.002291 -0.824366 -0.038513
-29.608252 57.933486 90.302448 -164.043456 -47.010859 -1.772251 -8.679692 27.774818 -1.052522 -1.555411 5.244810 -0.051476 -2.401268 8.220609 -0.118036 -6.777909 22.467388 -1.177266 2.184374 8.956371 -1.461323 5.063373 -19.046660 -3.925188 7.799695 -2.208880 -5.721806 42.297391 -50.067556 -29.592115 35.029369 -7.324711 5.191722 11.849288 -2.203721 -50.414044 -15.462568 -10.364150 -1.753114 -30.244554 -51.752977 7.595953 -51.061250 3.505258 9.782072 -22.932077 -0.366705 32.940121 1.032085 -22.949913 -14.448789 -8.470233 79.870065 -3.638101 -3.397608 -7.509314 1.742986 -0.018846 0.180024 -0.069259 -12.921053 -29.339262 -19.267590 56.911389 75.126490 53.184713 -16.999329 -8.259119 0.583147 -0.107257 -0.835112 -0.086858
-29.600552 57.935478 90.302418 -164.122575 -47.002883 -1.768892 -8.644283 27.772865 -1.034838 -1.571351 5.241542 -0.063450 -2.387930 8.220655 -0.113422 -6.771033 22.468941 -1.175946 2.190421 8.964042 -1.465226 5.080717 -19.029505 -3.934885 7.821908 -2.206277 -5.721272 42.310756 -50.064848 -29.593806 35.018385 -7.296497 5.168498 11.841444 -2.210618 -50.428582 -15.441649 -10.360404 -1.756449 -30.254386 -51.753167 7.590784 -51.025112 3.476887 9.798020 -22.949454 -0.346164 32.936336 1.037800 -22.960473 -14.408954 -8.390311 79.852814 -3.537682 -3.386543 -7.509672 1.722773 -0.025381 0.181820 -0.076574 -12.873824 -29.326017 -19.267490 56.998939 75.077457 53.354335 -17.003391 -8.243787 0.555558 -0.105116 -0.855710 -0.104971
-29.580934 57.936522 90.301092 -164.169672 -46.981845 -1.859416 -8.605791 27.766691 -0.951121 -1.566600 5.238666 -0.061525 -2.386044 8.220141 -0.113161 -6.766643 22.472359 -1.178633 2.200373 8.969985 -1.466036 5.110947 -19.020756 -3.943586 7.815528 -2.206318 -5.717227 42.322385 -50.059327 -29.598026 35.025388 -7.295536 5.162281 11.809845 -2.173812 -50.502618 -15.417789 -10.355725 -1.759119 -30.248143 -51.752826 7.592164 -51.006609 3.380189 9.783518 -22.962508 -0.312575 32.945608 0.991077 -22.977495 -14.294034 -8.358824 79.820095 -3.462876 -3.357288 -7.495806 1.677406 -0.048221 0.164192 -0.065916 -12.907256 -29.320910 -19.152336 57.083251 75.045432 53.553607 -17.145065 -8.247582 0.449964 0.031997 -0.856252 -0.067910
